<svg width="324" height="107" viewBox="0 0 324 107" fill="none" xmlns="http://www.w3.org/2000/svg">
<rect x="2.5" y="2.5" width="319" height="102" rx="7.5" fill="black"/>
<path d="M129.344 58.464H119.544L117.612 63H113.86L122.68 43.4H126.264L135.112 63H131.304L129.344 58.464ZM128.14 55.608L124.444 47.04L120.776 55.608H128.14ZM145.669 43.4C147.367 43.4 148.842 43.68 150.093 44.24C151.362 44.8 152.333 45.6027 153.005 46.648C153.677 47.6933 154.013 48.9347 154.013 50.372C154.013 51.7907 153.677 53.032 153.005 54.096C152.333 55.1413 151.362 55.944 150.093 56.504C148.842 57.064 147.367 57.344 145.669 57.344H141.245V63H137.605V43.4H145.669ZM145.501 54.264C147.087 54.264 148.291 53.928 149.113 53.256C149.934 52.584 150.345 51.6227 150.345 50.372C150.345 49.1213 149.934 48.16 149.113 47.488C148.291 46.816 147.087 46.48 145.501 46.48H141.245V54.264H145.501ZM165.712 43.4C167.41 43.4 168.885 43.68 170.136 44.24C171.405 44.8 172.376 45.6027 173.048 46.648C173.72 47.6933 174.056 48.9347 174.056 50.372C174.056 51.7907 173.72 53.032 173.048 54.096C172.376 55.1413 171.405 55.944 170.136 56.504C168.885 57.064 167.41 57.344 165.712 57.344H161.288V63H157.648V43.4H165.712ZM165.544 54.264C167.13 54.264 168.334 53.928 169.156 53.256C169.977 52.584 170.388 51.6227 170.388 50.372C170.388 49.1213 169.977 48.16 169.156 47.488C168.334 46.816 167.13 46.48 165.544 46.48H161.288V54.264H165.544ZM190.515 63L186.511 57.26C186.343 57.2787 186.091 57.288 185.755 57.288H181.331V63H177.691V43.4H185.755C187.453 43.4 188.928 43.68 190.179 44.24C191.448 44.8 192.419 45.6027 193.091 46.648C193.763 47.6933 194.099 48.9347 194.099 50.372C194.099 51.8467 193.735 53.116 193.007 54.18C192.297 55.244 191.271 56.0373 189.927 56.56L194.435 63H190.515ZM190.431 50.372C190.431 49.1213 190.02 48.16 189.199 47.488C188.377 46.816 187.173 46.48 185.587 46.48H181.331V54.292H185.587C187.173 54.292 188.377 53.956 189.199 53.284C190.02 52.5933 190.431 51.6227 190.431 50.372ZM207.327 63.28C205.33 63.28 203.528 62.8507 201.923 61.992C200.318 61.1147 199.058 59.9107 198.143 58.38C197.228 56.8307 196.771 55.104 196.771 53.2C196.771 51.296 197.228 49.5787 198.143 48.048C199.058 46.4987 200.318 45.2947 201.923 44.436C203.528 43.5587 205.33 43.12 207.327 43.12C209.324 43.12 211.126 43.5587 212.731 44.436C214.336 45.2947 215.596 46.4893 216.511 48.02C217.426 49.5507 217.883 51.2773 217.883 53.2C217.883 55.1227 217.426 56.8493 216.511 58.38C215.596 59.9107 214.336 61.1147 212.731 61.992C211.126 62.8507 209.324 63.28 207.327 63.28ZM207.327 60.088C208.634 60.088 209.81 59.7987 210.855 59.22C211.9 58.6227 212.722 57.8013 213.319 56.756C213.916 55.692 214.215 54.5067 214.215 53.2C214.215 51.8933 213.916 50.7173 213.319 49.672C212.722 48.608 211.9 47.7867 210.855 47.208C209.81 46.6107 208.634 46.312 207.327 46.312C206.02 46.312 204.844 46.6107 203.799 47.208C202.754 47.7867 201.932 48.608 201.335 49.672C200.738 50.7173 200.439 51.8933 200.439 53.2C200.439 54.5067 200.738 55.692 201.335 56.756C201.932 57.8013 202.754 58.6227 203.799 59.22C204.844 59.7987 206.02 60.088 207.327 60.088ZM239.032 43.4L230.492 63H226.908L218.34 43.4H222.288L228.812 58.52L235.392 43.4H239.032ZM255.801 59.948V63H241.101V43.4H255.409V46.452H244.741V51.548H254.205V54.544H244.741V59.948H255.801ZM259.859 43.4H268.427C270.517 43.4 272.375 43.8107 273.999 44.632C275.623 45.4347 276.883 46.5827 277.779 48.076C278.675 49.5507 279.123 51.2587 279.123 53.2C279.123 55.1413 278.675 56.8587 277.779 58.352C276.883 59.8267 275.623 60.9747 273.999 61.796C272.375 62.5987 270.517 63 268.427 63H259.859V43.4ZM268.259 59.92C269.696 59.92 270.956 59.6493 272.039 59.108C273.14 58.548 273.98 57.764 274.559 56.756C275.156 55.7293 275.455 54.544 275.455 53.2C275.455 51.856 275.156 50.68 274.559 49.672C273.98 48.6453 273.14 47.8613 272.039 47.32C270.956 46.76 269.696 46.48 268.259 46.48H263.499V59.92H268.259Z" fill="#00FFFF"/>
<path fill-rule="evenodd" clip-rule="evenodd" d="M46.1665 52.9998C46.1665 41.4998 55.4998 32.1665 66.9998 32.1665C78.4998 32.1665 87.8332 41.4998 87.8332 52.9998C87.8332 64.4998 78.4998 73.8332 66.9998 73.8332C55.4998 73.8332 46.1665 64.4998 46.1665 52.9998ZM52.4165 52.9999L62.8332 63.4166L81.5832 44.6666L78.6457 41.7083L62.8332 57.5208L55.354 50.0624L52.4165 52.9999Z" fill="#00DF4C"/>
<rect x="2.5" y="2.5" width="319" height="102" rx="7.5" stroke="url(#paint0_linear)" stroke-width="5"/>
<defs>
<linearGradient id="paint0_linear" x1="206.193" y1="5" x2="131.762" y2="162.069" gradientUnits="userSpaceOnUse">
<stop stop-color="#FF03C8"/>
<stop offset="1" stop-color="#FF003D"/>
</linearGradient>
</defs>
</svg>
