<svg width="324" height="107" viewBox="0 0 324 107" fill="none" xmlns="http://www.w3.org/2000/svg">
<rect x="2.5" y="2.5" width="319" height="102" rx="7.5" fill="black"/>
<path d="M140.016 64.8C141.445 64.8 142.565 65.1413 143.376 65.824C144.187 66.5067 144.592 67.4453 144.592 68.64C144.592 69.8347 144.187 70.7733 143.376 71.456C142.565 72.128 141.445 72.464 140.016 72.464H137.008V76H135.824V64.8H140.016ZM139.984 71.424C141.093 71.424 141.941 71.184 142.528 70.704C143.115 70.2133 143.408 69.5253 143.408 68.64C143.408 67.7333 143.115 67.04 142.528 66.56C141.941 66.0693 141.093 65.824 139.984 65.824H137.008V71.424H139.984ZM147.068 64.128H148.204V76H147.068V64.128ZM158.693 72.144H151.653C151.717 73.0187 152.053 73.728 152.661 74.272C153.269 74.8053 154.037 75.072 154.965 75.072C155.488 75.072 155.968 74.9813 156.405 74.8C156.843 74.608 157.221 74.3307 157.541 73.968L158.181 74.704C157.808 75.152 157.339 75.4933 156.773 75.728C156.219 75.9627 155.605 76.08 154.933 76.08C154.069 76.08 153.301 75.8987 152.629 75.536C151.968 75.1627 151.451 74.6507 151.077 74C150.704 73.3493 150.517 72.6133 150.517 71.792C150.517 70.9707 150.693 70.2347 151.045 69.584C151.408 68.9333 151.899 68.4267 152.517 68.064C153.147 67.7013 153.851 67.52 154.629 67.52C155.408 67.52 156.107 67.7013 156.725 68.064C157.344 68.4267 157.829 68.9333 158.181 69.584C158.533 70.224 158.709 70.96 158.709 71.792L158.693 72.144ZM154.629 68.496C153.819 68.496 153.136 68.7573 152.581 69.28C152.037 69.792 151.728 70.464 151.653 71.296H157.621C157.547 70.464 157.232 69.792 156.677 69.28C156.133 68.7573 155.451 68.496 154.629 68.496ZM163.731 67.52C164.83 67.52 165.672 67.7973 166.259 68.352C166.846 68.896 167.139 69.7067 167.139 70.784V76H166.051V74.688C165.795 75.1253 165.416 75.4667 164.915 75.712C164.424 75.9573 163.838 76.08 163.155 76.08C162.216 76.08 161.47 75.856 160.915 75.408C160.36 74.96 160.083 74.368 160.083 73.632C160.083 72.9173 160.339 72.3413 160.851 71.904C161.374 71.4667 162.2 71.248 163.331 71.248H166.003V70.736C166.003 70.0107 165.8 69.4613 165.395 69.088C164.99 68.704 164.398 68.512 163.619 68.512C163.086 68.512 162.574 68.6027 162.083 68.784C161.592 68.9547 161.171 69.1947 160.819 69.504L160.307 68.656C160.734 68.2933 161.246 68.016 161.843 67.824C162.44 67.6213 163.07 67.52 163.731 67.52ZM163.331 75.184C163.971 75.184 164.52 75.04 164.979 74.752C165.438 74.4533 165.779 74.0267 166.003 73.472V72.096H163.363C161.923 72.096 161.203 72.5973 161.203 73.6C161.203 74.0907 161.39 74.48 161.763 74.768C162.136 75.0453 162.659 75.184 163.331 75.184ZM172.481 76.08C171.798 76.08 171.142 75.984 170.513 75.792C169.894 75.5893 169.409 75.3387 169.057 75.04L169.569 74.144C169.921 74.4213 170.363 74.6507 170.897 74.832C171.43 75.0027 171.985 75.088 172.561 75.088C173.329 75.088 173.894 74.9707 174.257 74.736C174.63 74.4907 174.817 74.1493 174.817 73.712C174.817 73.4027 174.715 73.1627 174.513 72.992C174.31 72.8107 174.054 72.6773 173.745 72.592C173.435 72.496 173.025 72.4053 172.513 72.32C171.83 72.192 171.281 72.064 170.865 71.936C170.449 71.7973 170.091 71.568 169.793 71.248C169.505 70.928 169.361 70.4853 169.361 69.92C169.361 69.216 169.654 68.64 170.241 68.192C170.827 67.744 171.643 67.52 172.689 67.52C173.233 67.52 173.777 67.5947 174.321 67.744C174.865 67.8827 175.313 68.0693 175.665 68.304L175.169 69.216C174.475 68.736 173.649 68.496 172.689 68.496C171.963 68.496 171.414 68.624 171.041 68.88C170.678 69.136 170.497 69.472 170.497 69.888C170.497 70.208 170.598 70.464 170.801 70.656C171.014 70.848 171.275 70.992 171.585 71.088C171.894 71.1733 172.321 71.264 172.865 71.36C173.537 71.488 174.075 71.616 174.481 71.744C174.886 71.872 175.233 72.0907 175.521 72.4C175.809 72.7093 175.953 73.136 175.953 73.68C175.953 74.416 175.643 75.0027 175.025 75.44C174.417 75.8667 173.569 76.08 172.481 76.08ZM185.381 72.144H178.341C178.405 73.0187 178.741 73.728 179.349 74.272C179.957 74.8053 180.725 75.072 181.653 75.072C182.175 75.072 182.655 74.9813 183.093 74.8C183.53 74.608 183.909 74.3307 184.229 73.968L184.869 74.704C184.495 75.152 184.026 75.4933 183.461 75.728C182.906 75.9627 182.293 76.08 181.621 76.08C180.757 76.08 179.989 75.8987 179.317 75.536C178.655 75.1627 178.138 74.6507 177.765 74C177.391 73.3493 177.205 72.6133 177.205 71.792C177.205 70.9707 177.381 70.2347 177.733 69.584C178.095 68.9333 178.586 68.4267 179.205 68.064C179.834 67.7013 180.538 67.52 181.317 67.52C182.095 67.52 182.794 67.7013 183.413 68.064C184.031 68.4267 184.517 68.9333 184.869 69.584C185.221 70.224 185.397 70.96 185.397 71.792L185.381 72.144ZM181.317 68.496C180.506 68.496 179.823 68.7573 179.269 69.28C178.725 69.792 178.415 70.464 178.341 71.296H184.309C184.234 70.464 183.919 69.792 183.365 69.28C182.821 68.7573 182.138 68.496 181.317 68.496ZM204.249 67.584L201.065 76H199.993L197.337 69.104L194.681 76H193.609L190.441 67.584H191.529L194.169 74.736L196.873 67.584H197.849L200.537 74.736L203.209 67.584H204.249ZM208.653 67.52C209.752 67.52 210.594 67.7973 211.181 68.352C211.768 68.896 212.061 69.7067 212.061 70.784V76H210.973V74.688C210.717 75.1253 210.338 75.4667 209.837 75.712C209.346 75.9573 208.76 76.08 208.077 76.08C207.138 76.08 206.392 75.856 205.837 75.408C205.282 74.96 205.005 74.368 205.005 73.632C205.005 72.9173 205.261 72.3413 205.773 71.904C206.296 71.4667 207.122 71.248 208.253 71.248H210.925V70.736C210.925 70.0107 210.722 69.4613 210.317 69.088C209.912 68.704 209.32 68.512 208.541 68.512C208.008 68.512 207.496 68.6027 207.005 68.784C206.514 68.9547 206.093 69.1947 205.741 69.504L205.229 68.656C205.656 68.2933 206.168 68.016 206.765 67.824C207.362 67.6213 207.992 67.52 208.653 67.52ZM208.253 75.184C208.893 75.184 209.442 75.04 209.901 74.752C210.36 74.4533 210.701 74.0267 210.925 73.472V72.096H208.285C206.845 72.096 206.125 72.5973 206.125 73.6C206.125 74.0907 206.312 74.48 206.685 74.768C207.058 75.0453 207.581 75.184 208.253 75.184ZM215.147 67.584H216.283V76H215.147V67.584ZM215.723 65.744C215.488 65.744 215.291 65.664 215.131 65.504C214.971 65.344 214.891 65.152 214.891 64.928C214.891 64.7147 214.971 64.528 215.131 64.368C215.291 64.208 215.488 64.128 215.723 64.128C215.957 64.128 216.155 64.208 216.315 64.368C216.475 64.5173 216.555 64.6987 216.555 64.912C216.555 65.1467 216.475 65.344 216.315 65.504C216.155 65.664 215.957 65.744 215.723 65.744ZM223.875 75.488C223.662 75.68 223.395 75.8293 223.075 75.936C222.766 76.032 222.441 76.08 222.099 76.08C221.31 76.08 220.702 75.8667 220.275 75.44C219.849 75.0133 219.635 74.4107 219.635 73.632V68.544H218.131V67.584H219.635V65.744H220.771V67.584H223.331V68.544H220.771V73.568C220.771 74.0693 220.894 74.4533 221.139 74.72C221.395 74.976 221.758 75.104 222.227 75.104C222.462 75.104 222.686 75.0667 222.899 74.992C223.123 74.9173 223.315 74.8107 223.475 74.672L223.875 75.488ZM225.767 64.8H227.111L226.871 72.64H225.991L225.767 64.8ZM226.439 76.08C226.205 76.08 226.002 76 225.831 75.84C225.671 75.6693 225.591 75.472 225.591 75.248C225.591 75.0133 225.671 74.8213 225.831 74.672C225.991 74.512 226.194 74.432 226.439 74.432C226.674 74.432 226.871 74.512 227.031 74.672C227.191 74.8213 227.271 75.0133 227.271 75.248C227.271 75.472 227.191 75.6693 227.031 75.84C226.871 76 226.674 76.08 226.439 76.08Z" fill="white"/>
<path d="M108.344 48.464H98.544L96.612 53H92.86L101.68 33.4H105.264L114.112 53H110.304L108.344 48.464ZM107.14 45.608L103.444 37.04L99.776 45.608H107.14ZM124.669 33.4C126.367 33.4 127.842 33.68 129.093 34.24C130.362 34.8 131.333 35.6027 132.005 36.648C132.677 37.6933 133.013 38.9347 133.013 40.372C133.013 41.7907 132.677 43.032 132.005 44.096C131.333 45.1413 130.362 45.944 129.093 46.504C127.842 47.064 126.367 47.344 124.669 47.344H120.245V53H116.605V33.4H124.669ZM124.501 44.264C126.087 44.264 127.291 43.928 128.113 43.256C128.934 42.584 129.345 41.6227 129.345 40.372C129.345 39.1213 128.934 38.16 128.113 37.488C127.291 36.816 126.087 36.48 124.501 36.48H120.245V44.264H124.501ZM144.712 33.4C146.41 33.4 147.885 33.68 149.136 34.24C150.405 34.8 151.376 35.6027 152.048 36.648C152.72 37.6933 153.056 38.9347 153.056 40.372C153.056 41.7907 152.72 43.032 152.048 44.096C151.376 45.1413 150.405 45.944 149.136 46.504C147.885 47.064 146.41 47.344 144.712 47.344H140.288V53H136.648V33.4H144.712ZM144.544 44.264C146.13 44.264 147.334 43.928 148.156 43.256C148.977 42.584 149.388 41.6227 149.388 40.372C149.388 39.1213 148.977 38.16 148.156 37.488C147.334 36.816 146.13 36.48 144.544 36.48H140.288V44.264H144.544ZM169.515 53L165.511 47.26C165.343 47.2787 165.091 47.288 164.755 47.288H160.331V53H156.691V33.4H164.755C166.453 33.4 167.928 33.68 169.179 34.24C170.448 34.8 171.419 35.6027 172.091 36.648C172.763 37.6933 173.099 38.9347 173.099 40.372C173.099 41.8467 172.735 43.116 172.007 44.18C171.297 45.244 170.271 46.0373 168.927 46.56L173.435 53H169.515ZM169.431 40.372C169.431 39.1213 169.02 38.16 168.199 37.488C167.377 36.816 166.173 36.48 164.587 36.48H160.331V44.292H164.587C166.173 44.292 167.377 43.956 168.199 43.284C169.02 42.5933 169.431 41.6227 169.431 40.372ZM186.327 53.28C184.33 53.28 182.528 52.8507 180.923 51.992C179.318 51.1147 178.058 49.9107 177.143 48.38C176.228 46.8307 175.771 45.104 175.771 43.2C175.771 41.296 176.228 39.5787 177.143 38.048C178.058 36.4987 179.318 35.2947 180.923 34.436C182.528 33.5587 184.33 33.12 186.327 33.12C188.324 33.12 190.126 33.5587 191.731 34.436C193.336 35.2947 194.596 36.4893 195.511 38.02C196.426 39.5507 196.883 41.2773 196.883 43.2C196.883 45.1227 196.426 46.8493 195.511 48.38C194.596 49.9107 193.336 51.1147 191.731 51.992C190.126 52.8507 188.324 53.28 186.327 53.28ZM186.327 50.088C187.634 50.088 188.81 49.7987 189.855 49.22C190.9 48.6227 191.722 47.8013 192.319 46.756C192.916 45.692 193.215 44.5067 193.215 43.2C193.215 41.8933 192.916 40.7173 192.319 39.672C191.722 38.608 190.9 37.7867 189.855 37.208C188.81 36.6107 187.634 36.312 186.327 36.312C185.02 36.312 183.844 36.6107 182.799 37.208C181.754 37.7867 180.932 38.608 180.335 39.672C179.738 40.7173 179.439 41.8933 179.439 43.2C179.439 44.5067 179.738 45.692 180.335 46.756C180.932 47.8013 181.754 48.6227 182.799 49.22C183.844 49.7987 185.02 50.088 186.327 50.088ZM218.032 33.4L209.492 53H205.908L197.34 33.4H201.288L207.812 48.52L214.392 33.4H218.032ZM220.101 33.4H223.741V53H220.101V33.4ZM246.458 33.4V53H243.462L232.654 39.728V53H229.042V33.4H232.038L242.846 46.672V33.4H246.458ZM265.094 42.976H268.538V50.788C267.53 51.5907 266.354 52.2067 265.01 52.636C263.666 53.0653 262.285 53.28 260.866 53.28C258.869 53.28 257.067 52.8507 255.462 51.992C253.857 51.1147 252.597 49.9107 251.682 48.38C250.767 46.8493 250.31 45.1227 250.31 43.2C250.31 41.2773 250.767 39.5507 251.682 38.02C252.597 36.4893 253.857 35.2947 255.462 34.436C257.086 33.5587 258.906 33.12 260.922 33.12C262.565 33.12 264.058 33.3907 265.402 33.932C266.746 34.4733 267.875 35.2667 268.79 36.312L266.494 38.552C265.001 37.0587 263.199 36.312 261.09 36.312C259.709 36.312 258.477 36.6013 257.394 37.18C256.33 37.7587 255.49 38.5707 254.874 39.616C254.277 40.6613 253.978 41.856 253.978 43.2C253.978 44.5067 254.277 45.6827 254.874 46.728C255.49 47.7733 256.33 48.5947 257.394 49.192C258.477 49.7893 259.699 50.088 261.062 50.088C262.593 50.088 263.937 49.752 265.094 49.08V42.976ZM274.396 53.196C273.762 53.196 273.22 52.9813 272.772 52.552C272.324 52.104 272.1 51.544 272.1 50.872C272.1 50.1813 272.315 49.6213 272.744 49.192C273.192 48.7627 273.743 48.548 274.396 48.548C275.05 48.548 275.591 48.7627 276.02 49.192C276.468 49.6213 276.692 50.1813 276.692 50.872C276.692 51.544 276.468 52.104 276.02 52.552C275.572 52.9813 275.031 53.196 274.396 53.196ZM281.232 53.196C280.598 53.196 280.056 52.9813 279.608 52.552C279.16 52.104 278.936 51.544 278.936 50.872C278.936 50.1813 279.151 49.6213 279.58 49.192C280.028 48.7627 280.579 48.548 281.232 48.548C281.886 48.548 282.427 48.7627 282.856 49.192C283.304 49.6213 283.528 50.1813 283.528 50.872C283.528 51.544 283.304 52.104 282.856 52.552C282.408 52.9813 281.867 53.196 281.232 53.196ZM288.068 53.196C287.434 53.196 286.892 52.9813 286.444 52.552C285.996 52.104 285.772 51.544 285.772 50.872C285.772 50.1813 285.987 49.6213 286.416 49.192C286.864 48.7627 287.415 48.548 288.068 48.548C288.722 48.548 289.263 48.7627 289.692 49.192C290.14 49.6213 290.364 50.1813 290.364 50.872C290.364 51.544 290.14 52.104 289.692 52.552C289.244 52.9813 288.703 53.196 288.068 53.196Z" fill="url(#paint0_linear)"/>
<path fill-rule="evenodd" clip-rule="evenodd" d="M56.979 32.1665C45.479 32.1665 36.1665 41.4998 36.1665 52.9998C36.1665 64.4998 45.479 73.8332 56.979 73.8332C68.4998 73.8332 77.8332 64.4998 77.8332 52.9998C77.8332 41.4998 68.4998 32.1665 56.979 32.1665ZM56.9998 69.6665C47.7915 69.6665 40.3332 62.2082 40.3332 52.9998C40.3332 43.7915 47.7915 36.3332 56.9998 36.3332C66.2082 36.3332 73.6665 43.7915 73.6665 52.9998C73.6665 62.2082 66.2082 69.6665 56.9998 69.6665ZM54.9165 42.5832H58.0415V53.5207L67.4165 59.0832L65.854 61.6457L54.9165 55.0832V42.5832Z" fill="url(#paint1_linear)"/>
<rect x="2.5" y="2.5" width="319" height="102" rx="7.5" stroke="url(#paint2_linear)" stroke-width="5"/>
<defs>
<linearGradient id="paint0_linear" x1="193" y1="26" x2="193" y2="60" gradientUnits="userSpaceOnUse">
<stop stop-color="#FF03C8"/>
<stop offset="1" stop-color="#FF003D"/>
</linearGradient>
<linearGradient id="paint1_linear" x1="56.9998" y1="32.1665" x2="56.9998" y2="73.8332" gradientUnits="userSpaceOnUse">
<stop stop-color="#FF03C8"/>
<stop offset="1" stop-color="#FF003D"/>
</linearGradient>
<linearGradient id="paint2_linear" x1="319" y1="5.00001" x2="5" y2="102" gradientUnits="userSpaceOnUse">
<stop stop-color="#66FFCC"/>
<stop offset="1" stop-color="#00FFFF"/>
</linearGradient>
</defs>
</svg>
