<svg width="324" height="107" viewBox="0 0 324 107" fill="none" xmlns="http://www.w3.org/2000/svg">
<rect x="2.5" y="2.5" width="319" height="102" rx="7.5" fill="black"/>
<path d="M134.344 58.464H124.544L122.612 63H118.86L127.68 43.4H131.264L140.112 63H136.304L134.344 58.464ZM133.14 55.608L129.444 47.04L125.776 55.608H133.14ZM150.669 43.4C152.367 43.4 153.842 43.68 155.093 44.24C156.362 44.8 157.333 45.6027 158.005 46.648C158.677 47.6933 159.013 48.9347 159.013 50.372C159.013 51.7907 158.677 53.032 158.005 54.096C157.333 55.1413 156.362 55.944 155.093 56.504C153.842 57.064 152.367 57.344 150.669 57.344H146.245V63H142.605V43.4H150.669ZM150.501 54.264C152.087 54.264 153.291 53.928 154.113 53.256C154.934 52.584 155.345 51.6227 155.345 50.372C155.345 49.1213 154.934 48.16 154.113 47.488C153.291 46.816 152.087 46.48 150.501 46.48H146.245V54.264H150.501ZM170.712 43.4C172.41 43.4 173.885 43.68 175.136 44.24C176.405 44.8 177.376 45.6027 178.048 46.648C178.72 47.6933 179.056 48.9347 179.056 50.372C179.056 51.7907 178.72 53.032 178.048 54.096C177.376 55.1413 176.405 55.944 175.136 56.504C173.885 57.064 172.41 57.344 170.712 57.344H166.288V63H162.648V43.4H170.712ZM170.544 54.264C172.13 54.264 173.334 53.928 174.156 53.256C174.977 52.584 175.388 51.6227 175.388 50.372C175.388 49.1213 174.977 48.16 174.156 47.488C173.334 46.816 172.13 46.48 170.544 46.48H166.288V54.264H170.544ZM195.515 63L191.511 57.26C191.343 57.2787 191.091 57.288 190.755 57.288H186.331V63H182.691V43.4H190.755C192.453 43.4 193.928 43.68 195.179 44.24C196.448 44.8 197.419 45.6027 198.091 46.648C198.763 47.6933 199.099 48.9347 199.099 50.372C199.099 51.8467 198.735 53.116 198.007 54.18C197.297 55.244 196.271 56.0373 194.927 56.56L199.435 63H195.515ZM195.431 50.372C195.431 49.1213 195.02 48.16 194.199 47.488C193.377 46.816 192.173 46.48 190.587 46.48H186.331V54.292H190.587C192.173 54.292 193.377 53.956 194.199 53.284C195.02 52.5933 195.431 51.6227 195.431 50.372ZM212.327 63.28C210.33 63.28 208.528 62.8507 206.923 61.992C205.318 61.1147 204.058 59.9107 203.143 58.38C202.228 56.8307 201.771 55.104 201.771 53.2C201.771 51.296 202.228 49.5787 203.143 48.048C204.058 46.4987 205.318 45.2947 206.923 44.436C208.528 43.5587 210.33 43.12 212.327 43.12C214.324 43.12 216.126 43.5587 217.731 44.436C219.336 45.2947 220.596 46.4893 221.511 48.02C222.426 49.5507 222.883 51.2773 222.883 53.2C222.883 55.1227 222.426 56.8493 221.511 58.38C220.596 59.9107 219.336 61.1147 217.731 61.992C216.126 62.8507 214.324 63.28 212.327 63.28ZM212.327 60.088C213.634 60.088 214.81 59.7987 215.855 59.22C216.9 58.6227 217.722 57.8013 218.319 56.756C218.916 55.692 219.215 54.5067 219.215 53.2C219.215 51.8933 218.916 50.7173 218.319 49.672C217.722 48.608 216.9 47.7867 215.855 47.208C214.81 46.6107 213.634 46.312 212.327 46.312C211.02 46.312 209.844 46.6107 208.799 47.208C207.754 47.7867 206.932 48.608 206.335 49.672C205.738 50.7173 205.439 51.8933 205.439 53.2C205.439 54.5067 205.738 55.692 206.335 56.756C206.932 57.8013 207.754 58.6227 208.799 59.22C209.844 59.7987 211.02 60.088 212.327 60.088ZM244.032 43.4L235.492 63H231.908L223.34 43.4H227.288L233.812 58.52L240.392 43.4H244.032ZM260.801 59.948V63H246.101V43.4H260.409V46.452H249.741V51.548H259.205V54.544H249.741V59.948H260.801Z" fill="#868686"/>
<path fill-rule="evenodd" clip-rule="evenodd" d="M56.0835 71.7498L79.0002 32.1665L101.917 71.7498H56.0835ZM94.6879 67.5834L79.0004 40.4793L63.3129 67.5834H94.6879ZM76.9168 61.3332V65.4998H81.0835V61.3332H76.9168ZM76.9168 48.8332H81.0835V57.1665H76.9168V48.8332Z" fill="#868686"/>
<rect x="2.5" y="2.5" width="319" height="102" rx="7.5" stroke="#868686" stroke-width="5"/>
</svg>
