<svg width="15" height="15" viewBox="0 0 15 15" fill="none" xmlns="http://www.w3.org/2000/svg">
<circle cx="7.5" cy="7.5" r="7.5" fill="#F3BA2F"/>
<path d="M5.51897 6.68603L7.4998 4.70525L9.48166 6.68705L10.6343 5.53445L7.4998 2.3999L4.36643 5.53343L5.51897 6.68603ZM2.3999 7.49973L3.55253 6.3471L4.70509 7.49966L3.55247 8.65228L2.3999 7.49973ZM5.51897 8.31374L7.4998 10.2945L9.48161 8.31277L10.6348 9.46476L10.6343 9.46537L7.4998 12.5999L4.36632 9.46644L4.36469 9.46481L5.51897 8.31374ZM10.2947 7.50036L11.4473 6.34773L12.5999 7.50029L11.4473 8.65292L10.2947 7.50036Z" fill="black"/>
<path d="M8.6688 7.49917H8.66931L7.49973 6.32959L6.63538 7.19394H6.63533L6.53604 7.29328L6.33122 7.49815L6.32959 7.49973L6.33122 7.50141L7.49973 8.66997L8.66931 7.50039L8.66987 7.49973L8.6688 7.49917Z" fill="black"/>
</svg>
