<svg width="228" height="359" viewBox="0 0 228 359" fill="none" xmlns="http://www.w3.org/2000/svg">
<rect x="2.5" y="2.5" width="223" height="354" rx="7.5" fill="black"/>
<path d="M98.332 280.948V284H83.632V264.4H97.94V267.452H87.272V272.548H96.736V275.544H87.272V280.948H98.332ZM119.806 264.4V284H116.81L106.002 270.728V284H102.39V264.4H105.386L116.194 277.672V264.4H119.806ZM125.058 264.4H133.626C135.716 264.4 137.574 264.811 139.198 265.632C140.822 266.435 142.082 267.583 142.978 269.076C143.874 270.551 144.322 272.259 144.322 274.2C144.322 276.141 143.874 277.859 142.978 279.352C142.082 280.827 140.822 281.975 139.198 282.796C137.574 283.599 135.716 284 133.626 284H125.058V264.4ZM133.458 280.92C134.895 280.92 136.155 280.649 137.238 280.108C138.339 279.548 139.179 278.764 139.758 277.756C140.355 276.729 140.654 275.544 140.654 274.2C140.654 272.856 140.355 271.68 139.758 270.672C139.179 269.645 138.339 268.861 137.238 268.32C136.155 267.76 134.895 267.48 133.458 267.48H128.698V280.92H133.458Z" fill="url(#paint0_linear)"/>
<path fill-rule="evenodd" clip-rule="evenodd" d="M110.588 106.67L110.819 141.56C109.452 140.668 106.834 137.307 105.061 137.318C104.112 137.323 102.2 138.297 102.214 140.548C102.227 142.717 108.486 147.918 110.249 149.667C113.34 152.739 114.185 152.734 117.239 149.625C118.981 147.855 125.177 142.579 125.164 140.41C125.15 138.159 123.206 137.208 122.278 137.214C120.484 137.225 117.906 140.617 116.551 141.526C116.509 134.527 116.391 114.893 116.384 106.963C116.133 102.953 110.919 103.353 110.588 106.67Z" fill="url(#paint1_linear)"/>
<path fill-rule="evenodd" clip-rule="evenodd" d="M146.926 106.026L146.975 125.665C145.908 124.959 143.871 122.311 142.48 122.311C141.736 122.311 140.233 123.065 140.233 124.83C140.233 126.531 145.116 130.639 146.49 132.019C148.899 134.441 149.562 134.441 151.971 132.019C153.345 130.639 158.228 126.531 158.228 124.83C158.228 123.065 156.708 122.311 155.98 122.311C154.574 122.311 152.536 124.959 151.469 125.665C151.469 120.177 151.469 112.282 151.469 106.282C151.292 103.138 147.201 103.426 146.926 106.026Z" fill="url(#paint2_linear)"/>
<path fill-rule="evenodd" clip-rule="evenodd" d="M75.6934 106.026L75.7419 125.665C74.6748 124.959 72.6377 122.311 71.2473 122.311C70.5036 122.311 69 123.065 69 124.83C69 126.531 73.8826 130.639 75.2569 132.019C77.6659 134.441 78.3287 134.441 80.7377 132.019C82.112 130.639 86.9946 126.531 86.9946 124.83C86.9946 123.065 85.4749 122.311 84.7473 122.311C83.3407 122.311 81.3036 124.959 80.2365 125.665C80.2365 120.177 80.2365 112.282 80.2365 106.282C80.0587 103.138 75.9683 103.426 75.6934 106.026Z" fill="url(#paint3_linear)"/>
<path d="M74.0491 191.2L70.8011 201H68.8691L66.4471 193.748L63.9831 201H62.0371L58.7891 191.2H60.6791L63.1151 198.648L65.6491 191.2H67.3291L69.8071 198.69L72.3131 191.2H74.0491ZM75.4322 193.524H77.1822V201H75.4322V193.524ZM76.3142 192.292C75.9968 192.292 75.7308 192.194 75.5162 191.998C75.3015 191.793 75.1942 191.541 75.1942 191.242C75.1942 190.943 75.3015 190.696 75.5162 190.5C75.7308 190.295 75.9968 190.192 76.3142 190.192C76.6315 190.192 76.8975 190.29 77.1122 190.486C77.3268 190.673 77.4342 190.911 77.4342 191.2C77.4342 191.508 77.3268 191.769 77.1122 191.984C76.9068 192.189 76.6408 192.292 76.3142 192.292ZM83.9731 200.594C83.7677 200.762 83.5157 200.888 83.2171 200.972C82.9277 201.056 82.6197 201.098 82.2931 201.098C81.4717 201.098 80.8371 200.883 80.3891 200.454C79.9411 200.025 79.7171 199.399 79.7171 198.578V194.98H78.4851V193.58H79.7171V191.872H81.4671V193.58H83.4691V194.98H81.4671V198.536C81.4671 198.9 81.5557 199.18 81.7331 199.376C81.9104 199.563 82.1671 199.656 82.5031 199.656C82.8951 199.656 83.2217 199.553 83.4831 199.348L83.9731 200.594ZM89.6546 193.44C90.5973 193.44 91.3533 193.715 91.9226 194.266C92.492 194.817 92.7766 195.633 92.7766 196.716V201H91.0266V196.94C91.0266 196.287 90.8726 195.797 90.5646 195.47C90.2566 195.134 89.818 194.966 89.2486 194.966C88.6046 194.966 88.096 195.162 87.7226 195.554C87.3493 195.937 87.1626 196.492 87.1626 197.22V201H85.4126V190.612H87.1626V194.392C87.452 194.084 87.8066 193.851 88.2266 193.692C88.656 193.524 89.132 193.44 89.6546 193.44ZM102.387 190.612V201H100.707V200.034C100.418 200.389 100.058 200.655 99.629 200.832C99.209 201.009 98.7423 201.098 98.229 201.098C97.5103 201.098 96.8617 200.939 96.283 200.622C95.7137 200.305 95.2657 199.857 94.939 199.278C94.6123 198.69 94.449 198.018 94.449 197.262C94.449 196.506 94.6123 195.839 94.939 195.26C95.2657 194.681 95.7137 194.233 96.283 193.916C96.8617 193.599 97.5103 193.44 98.229 193.44C98.7237 193.44 99.1763 193.524 99.587 193.692C99.9977 193.86 100.348 194.112 100.637 194.448V190.612H102.387ZM98.439 199.6C98.859 199.6 99.237 199.507 99.573 199.32C99.909 199.124 100.175 198.849 100.371 198.494C100.567 198.139 100.665 197.729 100.665 197.262C100.665 196.795 100.567 196.385 100.371 196.03C100.175 195.675 99.909 195.405 99.573 195.218C99.237 195.022 98.859 194.924 98.439 194.924C98.019 194.924 97.641 195.022 97.305 195.218C96.969 195.405 96.703 195.675 96.507 196.03C96.311 196.385 96.213 196.795 96.213 197.262C96.213 197.729 96.311 198.139 96.507 198.494C96.703 198.849 96.969 199.124 97.305 199.32C97.641 199.507 98.019 199.6 98.439 199.6ZM106.342 194.616C106.846 193.832 107.733 193.44 109.002 193.44V195.106C108.853 195.078 108.718 195.064 108.596 195.064C107.915 195.064 107.383 195.265 107 195.666C106.618 196.058 106.426 196.627 106.426 197.374V201H104.676V193.524H106.342V194.616ZM113.302 193.44C114.403 193.44 115.243 193.706 115.822 194.238C116.41 194.761 116.704 195.554 116.704 196.618V201H115.052V200.09C114.837 200.417 114.529 200.669 114.128 200.846C113.736 201.014 113.26 201.098 112.7 201.098C112.14 201.098 111.65 201.005 111.23 200.818C110.81 200.622 110.483 200.356 110.25 200.02C110.026 199.675 109.914 199.287 109.914 198.858C109.914 198.186 110.161 197.649 110.656 197.248C111.16 196.837 111.949 196.632 113.022 196.632H114.954V196.52C114.954 195.997 114.795 195.596 114.478 195.316C114.17 195.036 113.708 194.896 113.092 194.896C112.672 194.896 112.257 194.961 111.846 195.092C111.445 195.223 111.104 195.405 110.824 195.638L110.138 194.364C110.53 194.065 111.001 193.837 111.552 193.678C112.103 193.519 112.686 193.44 113.302 193.44ZM113.064 199.824C113.503 199.824 113.89 199.726 114.226 199.53C114.571 199.325 114.814 199.035 114.954 198.662V197.794H113.148C112.14 197.794 111.636 198.125 111.636 198.788C111.636 199.105 111.762 199.357 112.014 199.544C112.266 199.731 112.616 199.824 113.064 199.824ZM130.475 193.524L127.717 201H126.037L124.105 195.848L122.145 201H120.465L117.721 193.524H119.373L121.347 199.04L123.405 193.524H124.875L126.891 199.068L128.921 193.524H130.475ZM142.547 193.524L139.047 201.602C138.721 202.414 138.324 202.983 137.857 203.31C137.391 203.646 136.826 203.814 136.163 203.814C135.79 203.814 135.421 203.753 135.057 203.632C134.693 203.511 134.395 203.343 134.161 203.128L134.861 201.84C135.029 201.999 135.225 202.125 135.449 202.218C135.683 202.311 135.916 202.358 136.149 202.358C136.457 202.358 136.709 202.279 136.905 202.12C137.111 201.961 137.297 201.695 137.465 201.322L137.591 201.028L134.329 193.524H136.149L138.501 199.054L140.867 193.524H142.547ZM146.796 201.098C146.04 201.098 145.359 200.935 144.752 200.608C144.145 200.281 143.669 199.829 143.324 199.25C142.988 198.662 142.82 197.999 142.82 197.262C142.82 196.525 142.988 195.867 143.324 195.288C143.669 194.709 144.145 194.257 144.752 193.93C145.359 193.603 146.04 193.44 146.796 193.44C147.561 193.44 148.247 193.603 148.854 193.93C149.461 194.257 149.932 194.709 150.268 195.288C150.613 195.867 150.786 196.525 150.786 197.262C150.786 197.999 150.613 198.662 150.268 199.25C149.932 199.829 149.461 200.281 148.854 200.608C148.247 200.935 147.561 201.098 146.796 201.098ZM146.796 199.6C147.44 199.6 147.972 199.385 148.392 198.956C148.812 198.527 149.022 197.962 149.022 197.262C149.022 196.562 148.812 195.997 148.392 195.568C147.972 195.139 147.44 194.924 146.796 194.924C146.152 194.924 145.62 195.139 145.2 195.568C144.789 195.997 144.584 196.562 144.584 197.262C144.584 197.962 144.789 198.527 145.2 198.956C145.62 199.385 146.152 199.6 146.796 199.6ZM159.698 193.524V201H158.032V200.048C157.752 200.384 157.402 200.645 156.982 200.832C156.562 201.009 156.109 201.098 155.624 201.098C154.625 201.098 153.836 200.823 153.258 200.272C152.688 199.712 152.404 198.886 152.404 197.794V193.524H154.154V197.556C154.154 198.228 154.303 198.732 154.602 199.068C154.91 199.395 155.344 199.558 155.904 199.558C156.529 199.558 157.024 199.367 157.388 198.984C157.761 198.592 157.948 198.032 157.948 197.304V193.524H159.698ZM163.655 194.616C164.159 193.832 165.045 193.44 166.315 193.44V195.106C166.165 195.078 166.03 195.064 165.909 195.064C165.227 195.064 164.695 195.265 164.313 195.666C163.93 196.058 163.739 196.627 163.739 197.374V201H161.989V193.524H163.655V194.616ZM79.2301 208.2H81.0501V216.46H86.1741V218H79.2301V208.2ZM91.6429 208.2C92.4923 208.2 93.2296 208.34 93.8549 208.62C94.4896 208.9 94.9749 209.301 95.3109 209.824C95.6469 210.347 95.8149 210.967 95.8149 211.686C95.8149 212.395 95.6469 213.016 95.3109 213.548C94.9749 214.071 94.4896 214.472 93.8549 214.752C93.2296 215.032 92.4923 215.172 91.6429 215.172H89.4309V218H87.6109V208.2H91.6429ZM91.5589 213.632C92.3523 213.632 92.9543 213.464 93.3649 213.128C93.7756 212.792 93.9809 212.311 93.9809 211.686C93.9809 211.061 93.7756 210.58 93.3649 210.244C92.9543 209.908 92.3523 209.74 91.5589 209.74H89.4309V213.632H91.5589ZM103.626 209.74H100.378V208.2H108.694V209.74H105.446V218H103.626V209.74ZM112.487 218.098C111.731 218.098 111.049 217.935 110.443 217.608C109.836 217.281 109.36 216.829 109.015 216.25C108.679 215.662 108.511 214.999 108.511 214.262C108.511 213.525 108.679 212.867 109.015 212.288C109.36 211.709 109.836 211.257 110.443 210.93C111.049 210.603 111.731 210.44 112.487 210.44C113.252 210.44 113.938 210.603 114.545 210.93C115.151 211.257 115.623 211.709 115.959 212.288C116.304 212.867 116.477 213.525 116.477 214.262C116.477 214.999 116.304 215.662 115.959 216.25C115.623 216.829 115.151 217.281 114.545 217.608C113.938 217.935 113.252 218.098 112.487 218.098ZM112.487 216.6C113.131 216.6 113.663 216.385 114.083 215.956C114.503 215.527 114.713 214.962 114.713 214.262C114.713 213.562 114.503 212.997 114.083 212.568C113.663 212.139 113.131 211.924 112.487 211.924C111.843 211.924 111.311 212.139 110.891 212.568C110.48 212.997 110.275 213.562 110.275 214.262C110.275 214.962 110.48 215.527 110.891 215.956C111.311 216.385 111.843 216.6 112.487 216.6ZM121.202 214.794L119.9 216.026V218H118.15V207.612H119.9V213.884L123.526 210.524H125.626L122.504 213.66L125.92 218H123.792L121.202 214.794ZM133.764 214.304C133.764 214.425 133.755 214.598 133.736 214.822H127.87C127.973 215.373 128.239 215.811 128.668 216.138C129.107 216.455 129.648 216.614 130.292 216.614C131.113 216.614 131.79 216.343 132.322 215.802L133.26 216.88C132.924 217.281 132.499 217.585 131.986 217.79C131.473 217.995 130.894 218.098 130.25 218.098C129.429 218.098 128.705 217.935 128.08 217.608C127.455 217.281 126.969 216.829 126.624 216.25C126.288 215.662 126.12 214.999 126.12 214.262C126.12 213.534 126.283 212.881 126.61 212.302C126.946 211.714 127.408 211.257 127.996 210.93C128.584 210.603 129.247 210.44 129.984 210.44C130.712 210.44 131.361 210.603 131.93 210.93C132.509 211.247 132.957 211.7 133.274 212.288C133.601 212.867 133.764 213.539 133.764 214.304ZM129.984 211.84C129.424 211.84 128.948 212.008 128.556 212.344C128.173 212.671 127.94 213.109 127.856 213.66H132.098C132.023 213.119 131.795 212.68 131.412 212.344C131.029 212.008 130.553 211.84 129.984 211.84ZM139.687 210.44C140.63 210.44 141.386 210.715 141.955 211.266C142.524 211.817 142.809 212.633 142.809 213.716V218H141.059V213.94C141.059 213.287 140.905 212.797 140.597 212.47C140.289 212.134 139.85 211.966 139.281 211.966C138.637 211.966 138.128 212.162 137.755 212.554C137.382 212.937 137.195 213.492 137.195 214.22V218H135.445V210.524H137.111V211.49C137.4 211.145 137.764 210.883 138.203 210.706C138.642 210.529 139.136 210.44 139.687 210.44ZM147.339 218.098C146.732 218.098 146.14 218.019 145.561 217.86C144.982 217.701 144.52 217.501 144.175 217.258L144.847 215.928C145.183 216.152 145.584 216.334 146.051 216.474C146.527 216.605 146.994 216.67 147.451 216.67C148.496 216.67 149.019 216.395 149.019 215.844C149.019 215.583 148.884 215.401 148.613 215.298C148.352 215.195 147.927 215.097 147.339 215.004C146.723 214.911 146.219 214.803 145.827 214.682C145.444 214.561 145.108 214.351 144.819 214.052C144.539 213.744 144.399 213.319 144.399 212.778C144.399 212.069 144.693 211.504 145.281 211.084C145.878 210.655 146.681 210.44 147.689 210.44C148.202 210.44 148.716 210.501 149.229 210.622C149.742 210.734 150.162 210.888 150.489 211.084L149.817 212.414C149.182 212.041 148.468 211.854 147.675 211.854C147.162 211.854 146.77 211.933 146.499 212.092C146.238 212.241 146.107 212.442 146.107 212.694C146.107 212.974 146.247 213.175 146.527 213.296C146.816 213.408 147.26 213.515 147.857 213.618C148.454 213.711 148.944 213.819 149.327 213.94C149.71 214.061 150.036 214.267 150.307 214.556C150.587 214.845 150.727 215.256 150.727 215.788C150.727 216.488 150.424 217.048 149.817 217.468C149.21 217.888 148.384 218.098 147.339 218.098Z" fill="white"/>
<path fill-rule="evenodd" clip-rule="evenodd" d="M124.229 62.372C128.781 60.8138 129.664 70.7672 125.762 71.8215C121.39 73.0026 120.275 63.725 124.229 62.372ZM101.928 62.3384C106.375 60.9325 107.191 70.8186 103.255 71.8244C98.9862 72.9154 97.7525 63.6585 101.928 62.3384ZM84.6154 70.4797L84.8549 70.8522C84.8625 70.8672 85.0974 71.3569 85.121 71.417C87.2163 76.7947 89.7897 79.2489 95.5627 82.2554C109.882 89.7131 137.844 86.7644 142.772 71.4453L143.291 70.2939C143.587 61.8004 138.467 57.5614 131.926 54.233C131.126 53.8253 129.901 53.4566 129.122 52.99C129.211 44.9259 135.398 35.2717 128.189 32.0453C124.325 30.3158 120.397 33.305 120.061 36.8478C119.666 41.0303 120.14 46.3237 120.003 50.6746C117.994 50.7445 115.895 50.4371 113.84 50.4455C112.081 50.4527 109.431 50.3735 107.816 50.7049C107.572 46.3046 108.101 41.3871 107.761 37.0784C107.257 30.7128 98.5959 29.5022 96.342 35.4905C95.2785 38.3167 98.1628 47.9523 98.7403 53.0758C91.6955 55.8038 84.0509 60.767 84.6154 70.4797V70.4797Z" fill="#D0884E"/>
<path fill-rule="evenodd" clip-rule="evenodd" d="M143.291 70.2941C142.944 75.1134 143.327 76.6952 140.74 80.1343C131.552 92.3491 108.056 93.6548 94.042 86.0067C91.4715 84.6037 88.9367 82.5384 87.4187 80.392C84.5266 76.3032 85.151 75.9516 84.6153 70.4799C84.0507 60.7672 91.6954 55.804 98.7402 53.076C98.1627 47.9525 95.2783 38.3169 96.3419 35.4906C98.5958 29.5024 107.257 30.713 107.76 37.0785C108.101 41.3873 107.571 46.3048 107.816 50.7051C110.036 50.6978 117.812 50.751 120.003 50.6747C120.14 46.3238 119.666 41.0305 120.061 36.848C120.397 33.3052 124.325 30.316 128.189 32.0455C135.397 35.2719 129.211 44.926 129.121 52.9902C129.901 53.4568 131.125 53.8255 131.926 54.2331C138.466 57.5615 143.586 61.8006 143.291 70.2941V70.2941ZM93.7256 35.2985C92.5855 37.9742 95.5646 47.9583 95.736 51.5045C91.7809 53.191 87.6227 56.0632 85.3405 59.239C81.8543 64.0901 81.8136 67.3066 82.1175 74.287C82.5015 83.1085 93.1388 89.5633 101.307 91.7233C115.056 95.3583 134.445 93.0876 142.82 81.7193C145.671 77.8498 146.467 72.9817 145.754 66.5638C144.244 58.8943 138.932 54.3522 132.068 51.4092C132.09 44.4068 137.038 37.2629 132.192 31.7121C128.791 27.8165 119.97 27.2982 117.602 35.7533L117.476 47.9733L110.31 47.9519L110.303 36.5195C110.323 34.8842 108.986 32.5318 107.939 31.4876C106.73 30.2825 104.784 29.2224 102.821 29.0424C98.0872 28.6085 94.6363 31.5604 93.7256 35.2985V35.2985Z" fill="#633304"/>
<path fill-rule="evenodd" clip-rule="evenodd" d="M84.6157 70.4802C85.1514 75.9519 84.527 76.3035 87.4192 80.3923C88.9372 82.5387 91.4719 84.604 94.0424 86.007C108.056 93.6551 131.552 92.3494 140.741 80.1346C143.328 76.6955 142.944 75.1137 143.291 70.2944L142.772 71.4458C137.844 86.7649 109.883 89.7136 95.563 82.2559C89.79 79.2493 87.2166 76.7952 85.1213 71.4175C85.0976 71.3574 84.8628 70.8677 84.8552 70.8526L84.6157 70.4802V70.4802Z" fill="#FCDB8D"/>
<path fill-rule="evenodd" clip-rule="evenodd" d="M124.228 62.3712C120.275 63.7242 121.389 73.0019 125.761 71.8207C129.663 70.7665 128.781 60.813 124.228 62.3712Z" fill="#653101"/>
<path fill-rule="evenodd" clip-rule="evenodd" d="M101.927 62.3388C97.752 63.6588 98.9857 72.9157 103.255 71.8247C107.191 70.819 106.375 60.9328 101.927 62.3388Z" fill="#633001"/>
<rect x="2.5" y="2.5" width="223" height="354" rx="7.5" stroke="url(#paint4_linear)" stroke-width="5"/>
<defs>
<linearGradient id="paint0_linear" x1="81" y1="285.552" x2="146.743" y2="282.085" gradientUnits="userSpaceOnUse">
<stop stop-color="#00FFFF"/>
<stop offset="1" stop-color="#66FFCC"/>
</linearGradient>
<linearGradient id="paint1_linear" x1="108.994" y1="51.3257" x2="-39.8107" y2="205.38" gradientUnits="userSpaceOnUse">
<stop stop-color="#66FFCC"/>
<stop offset="1" stop-color="#00FFFF"/>
</linearGradient>
<linearGradient id="paint2_linear" x1="145.97" y1="54.9076" x2="28.572" y2="174.992" gradientUnits="userSpaceOnUse">
<stop stop-color="#66FFCC"/>
<stop offset="1" stop-color="#00FFFF"/>
</linearGradient>
<linearGradient id="paint3_linear" x1="74.7372" y1="54.9076" x2="-42.6609" y2="174.992" gradientUnits="userSpaceOnUse">
<stop stop-color="#66FFCC"/>
<stop offset="1" stop-color="#00FFFF"/>
</linearGradient>
<linearGradient id="paint4_linear" x1="144.681" y1="5" x2="-97.0341" y2="103.428" gradientUnits="userSpaceOnUse">
<stop stop-color="#FF03C8"/>
<stop offset="1" stop-color="#FF003D"/>
</linearGradient>
</defs>
</svg>
