<svg width="228" height="359" viewBox="0 0 228 359" fill="none" xmlns="http://www.w3.org/2000/svg">
<rect x="2.5" y="2.5" width="223" height="354" rx="7.5" fill="black"/>
<path d="M98.332 280.948V284H83.632V264.4H97.94V267.452H87.272V272.548H96.736V275.544H87.272V280.948H98.332ZM119.806 264.4V284H116.81L106.002 270.728V284H102.39V264.4H105.386L116.194 277.672V264.4H119.806ZM125.058 264.4H133.626C135.716 264.4 137.574 264.811 139.198 265.632C140.822 266.435 142.082 267.583 142.978 269.076C143.874 270.551 144.322 272.259 144.322 274.2C144.322 276.141 143.874 277.859 142.978 279.352C142.082 280.827 140.822 281.975 139.198 282.796C137.574 283.599 135.716 284 133.626 284H125.058V264.4ZM133.458 280.92C134.895 280.92 136.155 280.649 137.238 280.108C138.339 279.548 139.179 278.764 139.758 277.756C140.355 276.729 140.654 275.544 140.654 274.2C140.654 272.856 140.355 271.68 139.758 270.672C139.179 269.645 138.339 268.861 137.238 268.32C136.155 267.76 134.895 267.48 133.458 267.48H128.698V280.92H133.458Z" fill="#868686"/>
<path d="M74.0491 187.2L70.8011 197H68.8691L66.4471 189.748L63.9831 197H62.0371L58.7891 187.2H60.6791L63.1151 194.648L65.6491 187.2H67.3291L69.8071 194.69L72.3131 187.2H74.0491ZM75.4322 189.524H77.1822V197H75.4322V189.524ZM76.3142 188.292C75.9968 188.292 75.7308 188.194 75.5162 187.998C75.3015 187.793 75.1942 187.541 75.1942 187.242C75.1942 186.943 75.3015 186.696 75.5162 186.5C75.7308 186.295 75.9968 186.192 76.3142 186.192C76.6315 186.192 76.8975 186.29 77.1122 186.486C77.3268 186.673 77.4342 186.911 77.4342 187.2C77.4342 187.508 77.3268 187.769 77.1122 187.984C76.9068 188.189 76.6408 188.292 76.3142 188.292ZM83.9731 196.594C83.7677 196.762 83.5157 196.888 83.2171 196.972C82.9277 197.056 82.6197 197.098 82.2931 197.098C81.4717 197.098 80.8371 196.883 80.3891 196.454C79.9411 196.025 79.7171 195.399 79.7171 194.578V190.98H78.4851V189.58H79.7171V187.872H81.4671V189.58H83.4691V190.98H81.4671V194.536C81.4671 194.9 81.5557 195.18 81.7331 195.376C81.9104 195.563 82.1671 195.656 82.5031 195.656C82.8951 195.656 83.2217 195.553 83.4831 195.348L83.9731 196.594ZM89.6546 189.44C90.5973 189.44 91.3533 189.715 91.9226 190.266C92.492 190.817 92.7766 191.633 92.7766 192.716V197H91.0266V192.94C91.0266 192.287 90.8726 191.797 90.5646 191.47C90.2566 191.134 89.818 190.966 89.2486 190.966C88.6046 190.966 88.096 191.162 87.7226 191.554C87.3493 191.937 87.1626 192.492 87.1626 193.22V197H85.4126V186.612H87.1626V190.392C87.452 190.084 87.8066 189.851 88.2266 189.692C88.656 189.524 89.132 189.44 89.6546 189.44ZM102.387 186.612V197H100.707V196.034C100.418 196.389 100.058 196.655 99.629 196.832C99.209 197.009 98.7423 197.098 98.229 197.098C97.5103 197.098 96.8617 196.939 96.283 196.622C95.7137 196.305 95.2657 195.857 94.939 195.278C94.6123 194.69 94.449 194.018 94.449 193.262C94.449 192.506 94.6123 191.839 94.939 191.26C95.2657 190.681 95.7137 190.233 96.283 189.916C96.8617 189.599 97.5103 189.44 98.229 189.44C98.7237 189.44 99.1763 189.524 99.587 189.692C99.9977 189.86 100.348 190.112 100.637 190.448V186.612H102.387ZM98.439 195.6C98.859 195.6 99.237 195.507 99.573 195.32C99.909 195.124 100.175 194.849 100.371 194.494C100.567 194.139 100.665 193.729 100.665 193.262C100.665 192.795 100.567 192.385 100.371 192.03C100.175 191.675 99.909 191.405 99.573 191.218C99.237 191.022 98.859 190.924 98.439 190.924C98.019 190.924 97.641 191.022 97.305 191.218C96.969 191.405 96.703 191.675 96.507 192.03C96.311 192.385 96.213 192.795 96.213 193.262C96.213 193.729 96.311 194.139 96.507 194.494C96.703 194.849 96.969 195.124 97.305 195.32C97.641 195.507 98.019 195.6 98.439 195.6ZM106.342 190.616C106.846 189.832 107.733 189.44 109.002 189.44V191.106C108.853 191.078 108.718 191.064 108.596 191.064C107.915 191.064 107.383 191.265 107 191.666C106.618 192.058 106.426 192.627 106.426 193.374V197H104.676V189.524H106.342V190.616ZM113.302 189.44C114.403 189.44 115.243 189.706 115.822 190.238C116.41 190.761 116.704 191.554 116.704 192.618V197H115.052V196.09C114.837 196.417 114.529 196.669 114.128 196.846C113.736 197.014 113.26 197.098 112.7 197.098C112.14 197.098 111.65 197.005 111.23 196.818C110.81 196.622 110.483 196.356 110.25 196.02C110.026 195.675 109.914 195.287 109.914 194.858C109.914 194.186 110.161 193.649 110.656 193.248C111.16 192.837 111.949 192.632 113.022 192.632H114.954V192.52C114.954 191.997 114.795 191.596 114.478 191.316C114.17 191.036 113.708 190.896 113.092 190.896C112.672 190.896 112.257 190.961 111.846 191.092C111.445 191.223 111.104 191.405 110.824 191.638L110.138 190.364C110.53 190.065 111.001 189.837 111.552 189.678C112.103 189.519 112.686 189.44 113.302 189.44ZM113.064 195.824C113.503 195.824 113.89 195.726 114.226 195.53C114.571 195.325 114.814 195.035 114.954 194.662V193.794H113.148C112.14 193.794 111.636 194.125 111.636 194.788C111.636 195.105 111.762 195.357 112.014 195.544C112.266 195.731 112.616 195.824 113.064 195.824ZM130.475 189.524L127.717 197H126.037L124.105 191.848L122.145 197H120.465L117.721 189.524H119.373L121.347 195.04L123.405 189.524H124.875L126.891 195.068L128.921 189.524H130.475ZM142.547 189.524L139.047 197.602C138.721 198.414 138.324 198.983 137.857 199.31C137.391 199.646 136.826 199.814 136.163 199.814C135.79 199.814 135.421 199.753 135.057 199.632C134.693 199.511 134.395 199.343 134.161 199.128L134.861 197.84C135.029 197.999 135.225 198.125 135.449 198.218C135.683 198.311 135.916 198.358 136.149 198.358C136.457 198.358 136.709 198.279 136.905 198.12C137.111 197.961 137.297 197.695 137.465 197.322L137.591 197.028L134.329 189.524H136.149L138.501 195.054L140.867 189.524H142.547ZM146.796 197.098C146.04 197.098 145.359 196.935 144.752 196.608C144.145 196.281 143.669 195.829 143.324 195.25C142.988 194.662 142.82 193.999 142.82 193.262C142.82 192.525 142.988 191.867 143.324 191.288C143.669 190.709 144.145 190.257 144.752 189.93C145.359 189.603 146.04 189.44 146.796 189.44C147.561 189.44 148.247 189.603 148.854 189.93C149.461 190.257 149.932 190.709 150.268 191.288C150.613 191.867 150.786 192.525 150.786 193.262C150.786 193.999 150.613 194.662 150.268 195.25C149.932 195.829 149.461 196.281 148.854 196.608C148.247 196.935 147.561 197.098 146.796 197.098ZM146.796 195.6C147.44 195.6 147.972 195.385 148.392 194.956C148.812 194.527 149.022 193.962 149.022 193.262C149.022 192.562 148.812 191.997 148.392 191.568C147.972 191.139 147.44 190.924 146.796 190.924C146.152 190.924 145.62 191.139 145.2 191.568C144.789 191.997 144.584 192.562 144.584 193.262C144.584 193.962 144.789 194.527 145.2 194.956C145.62 195.385 146.152 195.6 146.796 195.6ZM159.698 189.524V197H158.032V196.048C157.752 196.384 157.402 196.645 156.982 196.832C156.562 197.009 156.109 197.098 155.624 197.098C154.625 197.098 153.836 196.823 153.258 196.272C152.688 195.712 152.404 194.886 152.404 193.794V189.524H154.154V193.556C154.154 194.228 154.303 194.732 154.602 195.068C154.91 195.395 155.344 195.558 155.904 195.558C156.529 195.558 157.024 195.367 157.388 194.984C157.761 194.592 157.948 194.032 157.948 193.304V189.524H159.698ZM163.655 190.616C164.159 189.832 165.045 189.44 166.315 189.44V191.106C166.165 191.078 166.03 191.064 165.909 191.064C165.227 191.064 164.695 191.265 164.313 191.666C163.93 192.058 163.739 192.627 163.739 193.374V197H161.989V189.524H163.655V190.616ZM79.2301 204.2H81.0501V212.46H86.1741V214H79.2301V204.2ZM91.6429 204.2C92.4923 204.2 93.2296 204.34 93.8549 204.62C94.4896 204.9 94.9749 205.301 95.3109 205.824C95.6469 206.347 95.8149 206.967 95.8149 207.686C95.8149 208.395 95.6469 209.016 95.3109 209.548C94.9749 210.071 94.4896 210.472 93.8549 210.752C93.2296 211.032 92.4923 211.172 91.6429 211.172H89.4309V214H87.6109V204.2H91.6429ZM91.5589 209.632C92.3523 209.632 92.9543 209.464 93.3649 209.128C93.7756 208.792 93.9809 208.311 93.9809 207.686C93.9809 207.061 93.7756 206.58 93.3649 206.244C92.9543 205.908 92.3523 205.74 91.5589 205.74H89.4309V209.632H91.5589ZM103.626 205.74H100.378V204.2H108.694V205.74H105.446V214H103.626V205.74ZM112.487 214.098C111.731 214.098 111.049 213.935 110.443 213.608C109.836 213.281 109.36 212.829 109.015 212.25C108.679 211.662 108.511 210.999 108.511 210.262C108.511 209.525 108.679 208.867 109.015 208.288C109.36 207.709 109.836 207.257 110.443 206.93C111.049 206.603 111.731 206.44 112.487 206.44C113.252 206.44 113.938 206.603 114.545 206.93C115.151 207.257 115.623 207.709 115.959 208.288C116.304 208.867 116.477 209.525 116.477 210.262C116.477 210.999 116.304 211.662 115.959 212.25C115.623 212.829 115.151 213.281 114.545 213.608C113.938 213.935 113.252 214.098 112.487 214.098ZM112.487 212.6C113.131 212.6 113.663 212.385 114.083 211.956C114.503 211.527 114.713 210.962 114.713 210.262C114.713 209.562 114.503 208.997 114.083 208.568C113.663 208.139 113.131 207.924 112.487 207.924C111.843 207.924 111.311 208.139 110.891 208.568C110.48 208.997 110.275 209.562 110.275 210.262C110.275 210.962 110.48 211.527 110.891 211.956C111.311 212.385 111.843 212.6 112.487 212.6ZM121.202 210.794L119.9 212.026V214H118.15V203.612H119.9V209.884L123.526 206.524H125.626L122.504 209.66L125.92 214H123.792L121.202 210.794ZM133.764 210.304C133.764 210.425 133.755 210.598 133.736 210.822H127.87C127.973 211.373 128.239 211.811 128.668 212.138C129.107 212.455 129.648 212.614 130.292 212.614C131.113 212.614 131.79 212.343 132.322 211.802L133.26 212.88C132.924 213.281 132.499 213.585 131.986 213.79C131.473 213.995 130.894 214.098 130.25 214.098C129.429 214.098 128.705 213.935 128.08 213.608C127.455 213.281 126.969 212.829 126.624 212.25C126.288 211.662 126.12 210.999 126.12 210.262C126.12 209.534 126.283 208.881 126.61 208.302C126.946 207.714 127.408 207.257 127.996 206.93C128.584 206.603 129.247 206.44 129.984 206.44C130.712 206.44 131.361 206.603 131.93 206.93C132.509 207.247 132.957 207.7 133.274 208.288C133.601 208.867 133.764 209.539 133.764 210.304ZM129.984 207.84C129.424 207.84 128.948 208.008 128.556 208.344C128.173 208.671 127.94 209.109 127.856 209.66H132.098C132.023 209.119 131.795 208.68 131.412 208.344C131.029 208.008 130.553 207.84 129.984 207.84ZM139.687 206.44C140.63 206.44 141.386 206.715 141.955 207.266C142.524 207.817 142.809 208.633 142.809 209.716V214H141.059V209.94C141.059 209.287 140.905 208.797 140.597 208.47C140.289 208.134 139.85 207.966 139.281 207.966C138.637 207.966 138.128 208.162 137.755 208.554C137.382 208.937 137.195 209.492 137.195 210.22V214H135.445V206.524H137.111V207.49C137.4 207.145 137.764 206.883 138.203 206.706C138.642 206.529 139.136 206.44 139.687 206.44ZM147.339 214.098C146.732 214.098 146.14 214.019 145.561 213.86C144.982 213.701 144.52 213.501 144.175 213.258L144.847 211.928C145.183 212.152 145.584 212.334 146.051 212.474C146.527 212.605 146.994 212.67 147.451 212.67C148.496 212.67 149.019 212.395 149.019 211.844C149.019 211.583 148.884 211.401 148.613 211.298C148.352 211.195 147.927 211.097 147.339 211.004C146.723 210.911 146.219 210.803 145.827 210.682C145.444 210.561 145.108 210.351 144.819 210.052C144.539 209.744 144.399 209.319 144.399 208.778C144.399 208.069 144.693 207.504 145.281 207.084C145.878 206.655 146.681 206.44 147.689 206.44C148.202 206.44 148.716 206.501 149.229 206.622C149.742 206.734 150.162 206.888 150.489 207.084L149.817 208.414C149.182 208.041 148.468 207.854 147.675 207.854C147.162 207.854 146.77 207.933 146.499 208.092C146.238 208.241 146.107 208.442 146.107 208.694C146.107 208.974 146.247 209.175 146.527 209.296C146.816 209.408 147.26 209.515 147.857 209.618C148.454 209.711 148.944 209.819 149.327 209.94C149.71 210.061 150.036 210.267 150.307 210.556C150.587 210.845 150.727 211.256 150.727 211.788C150.727 212.488 150.424 213.048 149.817 213.468C149.21 213.888 148.384 214.098 147.339 214.098Z" fill="#868686"/>
<path fill-rule="evenodd" clip-rule="evenodd" d="M110.588 106.67L110.819 141.56C109.452 140.668 106.834 137.307 105.061 137.318C104.112 137.323 102.2 138.297 102.214 140.548C102.227 142.717 108.486 147.918 110.249 149.667C113.34 152.739 114.185 152.734 117.239 149.625C118.981 147.855 125.177 142.579 125.164 140.41C125.15 138.159 123.206 137.208 122.278 137.214C120.484 137.225 117.906 140.617 116.551 141.526C116.509 134.527 116.391 114.893 116.384 106.963C116.133 102.953 110.919 103.353 110.588 106.67Z" fill="#868686"/>
<path fill-rule="evenodd" clip-rule="evenodd" d="M146.926 106.026L146.975 125.665C145.908 124.959 143.871 122.311 142.48 122.311C141.736 122.311 140.233 123.065 140.233 124.83C140.233 126.531 145.116 130.639 146.49 132.019C148.899 134.441 149.562 134.441 151.971 132.019C153.345 130.639 158.228 126.531 158.228 124.83C158.228 123.065 156.708 122.311 155.98 122.311C154.574 122.311 152.536 124.959 151.469 125.665C151.469 120.177 151.469 112.282 151.469 106.282C151.292 103.138 147.201 103.426 146.926 106.026Z" fill="#868686"/>
<path fill-rule="evenodd" clip-rule="evenodd" d="M75.6934 106.026L75.7419 125.665C74.6748 124.959 72.6377 122.311 71.2473 122.311C70.5036 122.311 69 123.065 69 124.83C69 126.531 73.8826 130.639 75.2569 132.019C77.6659 134.441 78.3287 134.441 80.7377 132.019C82.112 130.639 86.9946 126.531 86.9946 124.83C86.9946 123.065 85.4749 122.311 84.7473 122.311C83.3407 122.311 81.3036 124.959 80.2365 125.665C80.2365 120.177 80.2365 112.282 80.2365 106.282C80.0587 103.138 75.9683 103.426 75.6934 106.026Z" fill="#868686"/>
<path fill-rule="evenodd" clip-rule="evenodd" d="M124.229 62.372C128.781 60.8138 129.664 70.7672 125.762 71.8215C121.39 73.0026 120.275 63.725 124.229 62.372ZM101.928 62.3384C106.375 60.9325 107.191 70.8186 103.255 71.8244C98.9862 72.9154 97.7525 63.6585 101.928 62.3384ZM84.6154 70.4797L84.8549 70.8522C84.8625 70.8672 85.0974 71.3569 85.121 71.417C87.2163 76.7947 89.7897 79.2489 95.5627 82.2554C109.882 89.7131 137.844 86.7644 142.772 71.4453L143.291 70.2939C143.587 61.8004 138.467 57.5614 131.926 54.233C131.126 53.8253 129.901 53.4566 129.122 52.99C129.211 44.9259 135.398 35.2717 128.189 32.0453C124.325 30.3158 120.397 33.305 120.061 36.8478C119.666 41.0303 120.14 46.3237 120.003 50.6746C117.994 50.7445 115.895 50.4371 113.84 50.4455C112.081 50.4527 109.431 50.3735 107.816 50.7049C107.572 46.3046 108.101 41.3871 107.761 37.0784C107.257 30.7128 98.5959 29.5022 96.342 35.4905C95.2785 38.3167 98.1628 47.9523 98.7403 53.0758C91.6955 55.8038 84.0509 60.767 84.6154 70.4797V70.4797Z" fill="#B8B8B8"/>
<path fill-rule="evenodd" clip-rule="evenodd" d="M143.291 70.2941C142.944 75.1134 143.327 76.6952 140.74 80.1343C131.552 92.3491 108.056 93.6548 94.042 86.0067C91.4715 84.6037 88.9367 82.5384 87.4187 80.392C84.5266 76.3032 85.151 75.9516 84.6153 70.4799C84.0507 60.7672 91.6954 55.804 98.7402 53.076C98.1627 47.9525 95.2783 38.3169 96.3419 35.4906C98.5958 29.5024 107.257 30.713 107.76 37.0785C108.101 41.3873 107.571 46.3048 107.816 50.7051C110.036 50.6978 117.812 50.751 120.003 50.6747C120.14 46.3238 119.666 41.0305 120.061 36.848C120.397 33.3052 124.325 30.316 128.189 32.0455C135.397 35.2719 129.211 44.926 129.121 52.9902C129.901 53.4568 131.125 53.8255 131.926 54.2331C138.466 57.5615 143.586 61.8006 143.291 70.2941ZM93.7256 35.2985C92.5855 37.9742 95.5646 47.9583 95.736 51.5045C91.7809 53.191 87.6227 56.0632 85.3405 59.239C81.8543 64.0901 81.8136 67.3066 82.1175 74.287C82.5015 83.1085 93.1388 89.5633 101.307 91.7233C115.056 95.3583 134.445 93.0876 142.82 81.7193C145.671 77.8498 146.467 72.9817 145.754 66.5638C144.244 58.8943 138.932 54.3522 132.068 51.4092C132.09 44.4068 137.038 37.2629 132.192 31.7121C128.791 27.8165 119.97 27.2982 117.602 35.7533L117.476 47.9733L110.31 47.9519L110.303 36.5195C110.323 34.8842 108.986 32.5318 107.939 31.4876C106.73 30.2825 104.784 29.2224 102.821 29.0424C98.0872 28.6085 94.6363 31.5604 93.7256 35.2985Z" fill="#868686"/>
<path fill-rule="evenodd" clip-rule="evenodd" d="M84.6157 70.4802C85.1514 75.9519 84.527 76.3035 87.4192 80.3923C88.9372 82.5387 91.4719 84.604 94.0424 86.007C108.056 93.6551 131.552 92.3494 140.741 80.1346C143.328 76.6955 142.944 75.1137 143.291 70.2944L142.772 71.4458C137.844 86.7649 109.883 89.7136 95.563 82.2559C89.79 79.2493 87.2166 76.7952 85.1213 71.4175C85.0976 71.3574 84.8628 70.8677 84.8552 70.8526L84.6157 70.4802V70.4802Z" fill="#DCD9D2"/>
<path fill-rule="evenodd" clip-rule="evenodd" d="M124.228 62.3712C120.275 63.7242 121.389 73.0019 125.761 71.8207C129.663 70.7665 128.781 60.813 124.228 62.3712Z" fill="#868686"/>
<path fill-rule="evenodd" clip-rule="evenodd" d="M101.927 62.3388C97.752 63.6588 98.9857 72.9157 103.255 71.8247C107.191 70.819 106.375 60.9328 101.927 62.3388Z" fill="#868686"/>
<rect x="2.5" y="2.5" width="223" height="354" rx="7.5" stroke="#868686" stroke-width="5"/>
</svg>
